<svg width="18" height="18" viewBox="0 0 18 18" fill="none" xmlns="http://www.w3.org/2000/svg">
<path d="M9 0C4.05354 0 0 4.05354 0 9C0 13.9465 4.05354 18 9 18C13.9465 18 18 13.9465 18 9C18 4.05354 13.9465 0 9 0Z" fill="#FFE470"/>
<path d="M18 9C18 13.9465 13.9465 18 9 18V0C13.9465 0 18 4.05354 18 9Z" fill="#FFD400"/>
<path d="M9 2.14453C5.22414 2.14453 2.14453 5.22414 2.14453 9C2.14453 12.7759 5.22414 15.8555 9 15.8555C12.7759 15.8555 15.8555 12.7759 15.8555 9C15.8555 5.22414 12.7759 2.14453 9 2.14453Z" fill="#FDBF00"/>
<path d="M15.8555 9C15.8555 12.7759 12.7759 15.8555 9 15.8555V2.14453C12.7759 2.14453 15.8555 5.22414 15.8555 9Z" fill="#FF9F00"/>
<path d="M11.6367 10.582C11.6367 11.7422 10.6875 12.6914 9.52734 12.6914V13.2188C9.52734 13.5141 9.29539 13.7461 9 13.7461C8.70461 13.7461 8.47266 13.5141 8.47266 13.2188V12.6914H6.89062C6.59523 12.6914 6.36328 12.4595 6.36328 12.1641C6.36328 11.8687 6.59523 11.6367 6.89062 11.6367H9.52734C10.1074 11.6367 10.582 11.1621 10.582 10.582C10.582 10.002 10.1074 9.52734 9.52734 9.52734H8.47266C7.3125 9.52734 6.36328 8.57812 6.36328 7.41797C6.36328 6.25781 7.3125 5.30859 8.47266 5.30859V4.78125C8.47266 4.48586 8.70461 4.25391 9 4.25391C9.29539 4.25391 9.52734 4.48586 9.52734 4.78125V5.30859H11.1094C11.4048 5.30859 11.6367 5.54054 11.6367 5.83594C11.6367 6.13133 11.4048 6.36328 11.1094 6.36328H8.47266C7.89258 6.36328 7.41797 6.83789 7.41797 7.41797C7.41797 7.99805 7.89258 8.47266 8.47266 8.47266H9.52734C10.6875 8.47266 11.6367 9.42188 11.6367 10.582Z" fill="#FFE470"/>
<path d="M5.30763 9C5.30763 9.29128 5.07143 9.52734 4.78029 9.52734C4.48901 9.52734 4.25294 9.29128 4.25294 9C4.25294 8.70872 4.48901 8.47266 4.78029 8.47266C5.07143 8.47266 5.30763 8.70872 5.30763 9Z" fill="#FFE470"/>
<path d="M13.7451 9C13.7451 9.29128 13.5089 9.52734 13.2178 9.52734C12.9265 9.52734 12.6904 9.29128 12.6904 9C12.6904 8.70872 12.9265 8.47266 13.2178 8.47266C13.5089 8.47266 13.7451 8.70872 13.7451 9Z" fill="#FFD400"/>
<path d="M11.6367 10.582C11.6367 11.7422 10.6875 12.6914 9.52734 12.6914V13.2188C9.52734 13.5141 9.29539 13.7461 9 13.7461V11.6367H9.52734C10.1074 11.6367 10.582 11.1621 10.582 10.582C10.582 10.002 10.1074 9.52734 9.52734 9.52734H9V8.47266H9.52734C10.6875 8.47266 11.6367 9.42188 11.6367 10.582Z" fill="#FFD400"/>
<path d="M11.1094 6.36328H9V4.25391C9.29539 4.25391 9.52734 4.48586 9.52734 4.78125V5.30859H11.1094C11.4048 5.30859 11.6367 5.54054 11.6367 5.83594C11.6367 6.13133 11.4048 6.36328 11.1094 6.36328Z" fill="#FFD400"/>
</svg>
