<svg width="20" height="20" viewBox="0 0 20 20" fill="none" xmlns="http://www.w3.org/2000/svg">
<g clip-path="url(#clip0_2_11795)">
<path d="M16.377 14.4531H3.62308C3.42822 14.4531 3.24619 14.3568 3.13647 14.1958C1.45374 11.7282 1.32465 6.98132 1.31488 6.27667C1.31427 6.24905 1.31396 6.22113 1.31396 6.19336C1.31396 5.8685 1.57703 5.60498 1.90189 5.60437H1.90311C2.22736 5.60437 2.49088 5.86667 2.4921 6.19107C2.4921 6.19504 2.49225 6.22983 2.49362 6.29147C2.5455 7.96735 3.92505 9.31454 5.61328 9.31454C7.33432 9.31454 8.73447 7.9144 8.73447 6.19336C8.73447 5.86804 8.99829 5.60437 9.32346 5.60437H10.6765C11.0018 5.60437 11.2654 5.86804 11.2654 6.19336C11.2654 7.9144 12.6657 9.31454 14.3868 9.31454C16.0765 9.31454 17.457 7.9649 17.5066 6.2869C17.5077 6.228 17.508 6.19504 17.508 6.19122C17.5092 5.86667 17.7726 5.60437 18.097 5.60437H18.098C18.4229 5.60498 18.6859 5.8685 18.6859 6.19336C18.6859 6.22128 18.6856 6.24905 18.6852 6.27682C18.6753 6.98132 18.5462 11.7283 16.8636 14.196C16.7539 14.3568 16.5717 14.4531 16.377 14.4531Z" fill="#FFF780"/>
<path d="M18.0978 5.60437C18.0975 5.60437 18.0972 5.60437 18.0968 5.60437C17.7725 5.60437 17.509 5.86667 17.5078 6.19107C17.5078 6.19504 17.5076 6.228 17.5064 6.2869C17.4568 7.96475 16.0764 9.31454 14.3866 9.31454C12.6656 9.31454 11.2654 7.9144 11.2654 6.19336C11.2654 5.86804 11.0016 5.60437 10.6764 5.60437H10V14.4529H16.3768C16.5717 14.4529 16.7537 14.3567 16.8634 14.1958C18.5461 11.7282 18.6752 6.98117 18.685 6.27667C18.6856 6.24905 18.6859 6.22113 18.6859 6.19336C18.6858 5.8685 18.4227 5.60498 18.0978 5.60437Z" fill="#FFC02E"/>
<path d="M10.0002 3.59375C8.9509 3.59375 8.09717 4.44748 8.09717 5.49683C8.09717 6.54617 8.9509 7.39975 10.0002 7.39975C11.0496 7.39975 11.9033 6.54617 11.9033 5.49683C11.9033 4.44748 11.0496 3.59375 10.0002 3.59375Z" fill="#FFC02E"/>
<path d="M10 3.59375V7.3999C11.0493 7.39975 11.9029 6.54617 11.9029 5.49683C11.9029 4.44748 11.0492 3.5939 10 3.59375Z" fill="#FFA73B"/>
<path d="M1.90308 5.06421C0.853729 5.06421 0 5.91794 0 6.96729C0 8.01663 0.853729 8.87036 1.90308 8.87036C2.95242 8.87036 3.806 8.01663 3.806 6.96729C3.806 5.91794 2.95242 5.06421 1.90308 5.06421Z" fill="#FFC02E"/>
<path d="M18.0968 5.06421C17.0474 5.06421 16.1938 5.91794 16.1938 6.96729C16.1938 8.01648 17.0474 8.87021 18.0968 8.87021C19.1461 8.87021 19.9998 8.01648 19.9998 6.96729C19.9998 5.91794 19.1461 5.06421 18.0968 5.06421Z" fill="#FFA73B"/>
<path d="M16.3771 16.3836H3.62317C3.29785 16.3836 3.03418 16.12 3.03418 15.7946V14.0382H16.9661V15.7946C16.9661 16.12 16.7024 16.3836 16.3771 16.3836Z" fill="#FFC02E"/>
<path d="M10 16.3836H16.3768C16.7021 16.3836 16.9658 16.12 16.9658 15.7946V14.0382H10V16.3836Z" fill="#FFA73B"/>
</g>
<defs>
<clipPath id="clip0_2_11795">
<rect width="20" height="20" fill="white"/>
</clipPath>
</defs>
</svg>
