<?xml version="1.0" encoding="UTF-8"?>
<svg width="467px" height="500px" viewBox="0 0 467 500" version="1.1" xmlns="http://www.w3.org/2000/svg" xmlns:xlink="http://www.w3.org/1999/xlink">
    <title>icon</title>
    <defs>
        <path d="M404.206736,5.76620337 L404.702,6.01998437 L405.443295,6.41044466 L405.443295,6.41044466 C413.265517,10.5938149 419.404443,16.7327407 423.587813,24.5549629 L423.978273,25.2962574 L423.978273,25.2962574 L424.232054,25.7915216 L424.602899,26.5379373 L424.602899,26.5379373 L424.843555,27.0390125 L424.843555,27.0390125 L425.194641,27.7977402 L425.194641,27.7977402 L425.422077,28.3094206 L425.422077,28.3094206 L425.644199,28.8266853 L425.644199,28.8266853 L425.967383,29.6147309 L425.967383,29.6147309 L426.176151,30.1493123 L426.176151,30.1493123 L426.379551,30.6921628 L426.379551,30.6921628 L426.577568,31.2440493 L426.577568,31.2440493 L426.770186,31.8057389 L426.770186,31.8057389 L426.95739,32.3779986 L426.95739,32.3779986 L427.139166,32.9615956 C427.169009,33.0598491 427.198624,33.158607 427.228013,33.2578852 L427.401616,33.8599261 L427.401616,33.8599261 L427.569753,34.4752219 L427.569753,34.4752219 L427.732407,35.1045395 L427.732407,35.1045395 L427.889563,35.748646 C427.915297,35.8572721 427.940801,35.9665464 427.966075,36.0764848 L428.114956,36.7442128 L428.114956,36.7442128 L428.258302,37.4286474 L428.258302,37.4286474 L428.396097,38.1305555 L428.396097,38.1305555 L428.528325,38.8507042 L428.528325,38.8507042 L428.654972,39.5898606 L428.654972,39.5898606 L428.776023,40.3487916 L428.776023,40.3487916 L428.891461,41.1282644 L428.891461,41.1282644 L429.001273,41.9290459 L429.001273,41.9290459 L429.105442,42.7519033 L429.105442,42.7519033 L429.251082,44.0292594 L429.251082,44.0292594 L429.341079,44.9106621 L429.341079,44.9106621 L429.425379,45.8168253 L429.425379,45.8168253 L429.541117,47.2241738 L429.541117,47.2241738 L429.611112,48.195594 L429.611112,48.195594 L429.675357,49.1944594 L429.675357,49.1944594 L429.733838,50.2215369 L429.733838,50.2215369 L429.78654,51.2775936 L429.78654,51.2775936 L429.833446,52.3633966 L429.833446,52.3633966 L429.874543,53.4797128 L429.874543,53.4797128 L429.925261,55.2130776 L429.925261,55.2130776 L429.951765,56.409033 L429.951765,56.409033 L429.972407,57.6381863 L429.972407,57.6381863 L429.987169,58.9013047 L429.987169,58.9013047 L429.998998,60.1991551 L429.998998,60.1991551 L429.998998,61.5325046 L429.998998,61.5325046 L429.998998,379.99926 C429.998998,393.121545 419.467661,403.784105 406.395882,403.996044 L405.998998,403.99926 L397.998998,403.99926 C384.744164,403.99926 373.998998,414.744426 373.998998,427.99926 C373.998998,441.121545 384.530335,451.784105 397.602114,451.996044 L397.998998,451.99926 L405.998998,451.99926 C418.558636,451.99926 428.86496,461.646849 429.911511,473.935572 L429.865817,474.900715 C429.857413,475.057562 429.848615,475.212435 429.839425,475.365383 L429.779578,476.260332 C429.747307,476.696627 429.711518,477.116438 429.672237,477.52104 L429.589028,478.310343 L429.589028,478.310343 L429.496552,479.061357 C429.448005,479.42767 429.396,479.780475 429.340563,480.121049 L429.225118,480.786267 L429.225118,480.786267 L429.100564,481.421135 C428.799346,482.868852 428.424105,484.087245 427.977411,485.205995 L427.781604,485.679736 L427.781604,485.679736 L427.577093,486.143545 L427.577093,486.143545 L427.363922,486.59969 C427.327674,486.675202 427.291068,486.750488 427.254103,486.825598 L427.028028,487.274499 L427.028028,487.274499 L426.793405,487.721408 L426.793405,487.721408 C424.70172,491.632519 421.632257,494.701982 417.721146,496.793667 L417.323249,497.003005 L417.323249,497.003005 L416.923968,497.20557 L416.923968,497.20557 L416.521704,497.401329 L416.521704,497.401329 L416.114855,497.590252 L416.114855,497.590252 L415.70182,497.772306 L415.70182,497.772306 L415.280999,497.94746 C415.210124,497.976075 415.138858,498.004402 415.067168,498.032439 L414.631664,498.197183 C414.48462,498.250936 414.335611,498.303525 414.184371,498.354946 L413.723687,498.505698 L413.723687,498.505698 L413.248011,498.649406 C413.167394,498.672768 413.086085,498.695836 413.004051,498.718609 L412.502886,498.851692 C412.332755,498.894867 412.159457,498.936856 411.982727,498.977651 L411.441973,499.096456 L411.441973,499.096456 L410.879022,499.208074 L410.879022,499.208074 L410.292274,499.312474 L410.292274,499.312474 L409.680128,499.409623 C409.575898,499.425209 409.470543,499.440491 409.36403,499.455469 L408.710784,499.541683 L408.710784,499.541683 L408.028137,499.620567 L408.028137,499.620567 L407.314487,499.692089 L407.314487,499.692089 L406.568235,499.756217 C406.441054,499.766288 406.312447,499.776048 406.182382,499.785499 L405.384223,499.838478 L405.384223,499.838478 L404.549458,499.883983 L404.549458,499.883983 L403.676486,499.921984 L403.676486,499.921984 L402.763707,499.952448 L402.763707,499.952448 L401.809518,499.975343 L401.809518,499.975343 L400.812319,499.990638 L400.812319,499.990638 L399.77051,499.99926 L399.77051,499.99926 L92.2988651,499.99926 L90.3975678,499.99926 L90.3975678,499.99926 L88.5443794,499.983246 L88.5443794,499.983246 L86.7383133,499.963257 C86.4411744,499.959262 86.1459578,499.954935 85.8526429,499.950277 L84.1154108,499.918354 L84.1154108,499.918354 L82.4228348,499.878499 L82.4228348,499.878499 L80.7739285,499.830732 L80.7739285,499.830732 L79.1677055,499.775072 C78.9035038,499.765139 78.6410395,499.754877 78.380292,499.744288 L76.8362442,499.676826 L76.8362442,499.676826 L75.3324135,499.60152 L75.3324135,499.60152 L73.8678135,499.51839 L73.8678135,499.51839 L72.4414576,499.427456 L72.4414576,499.427456 L71.0523593,499.328736 C70.823893,499.311636 70.5969379,499.294211 70.3714736,499.276463 L69.0364123,499.166104 C68.8168287,499.147065 68.5986949,499.127704 68.3819901,499.108021 L67.0987461,498.986065 L67.0987461,498.986065 L65.8488139,498.856402 L65.8488139,498.856402 L64.6312071,498.719052 C64.4309116,498.695521 64.2319219,498.67167 64.0342174,498.647501 L62.863249,498.498657 C62.6706033,498.473213 62.4792017,498.44745 62.2890236,498.42137 L61.1624741,498.261077 C60.9771082,498.233727 60.7929247,498.20606 60.6099032,498.178076 L59.5255529,498.006378 C59.3470969,497.97713 59.1697618,497.947565 58.9935269,497.917686 L57.9491563,497.734626 C57.7772403,497.703486 57.6063834,497.672032 57.4365652,497.640264 L56.4299549,497.445887 C56.0984629,497.379841 55.7709611,497.31254 55.4472849,497.24399 L54.4875688,497.034593 L54.4875688,497.034593 L53.5498202,496.817714 C52.9317577,496.670639 52.3276825,496.51859 51.7362794,496.361592 L50.8585143,496.122388 L50.8585143,496.122388 L49.9987707,495.875781 C49.8569271,495.834064 49.7157933,495.792039 49.5753488,495.749708 L48.740788,495.492033 C48.6030182,495.448474 48.4658965,495.404609 48.3294025,495.360438 L47.5178049,495.09174 C47.2496731,495.000953 46.9838872,494.908945 46.720283,494.815719 L45.9358503,494.532393 L45.9358503,494.532393 L45.1635204,494.241782 C45.0357525,494.192741 44.9084478,494.143397 44.7815857,494.09375 L44.0255603,493.792249 L44.0255603,493.792249 L43.2791715,493.483511 L43.2791715,493.483511 L42.5414329,493.167556 L42.5414329,493.167556 L41.8113579,492.844405 L41.8113579,492.844405 L41.0879601,492.514077 L41.0879601,492.514077 L40.3702531,492.176591 L40.3702531,492.176591 L39.6572503,491.831967 L39.6572503,491.831967 L38.9479654,491.480224 L38.9479654,491.480224 L38.2414117,491.121383 L38.2414117,491.121383 L37.5366029,490.755462 L37.5366029,490.755462 L36.8325526,490.382482 L36.8325526,490.382482 C25.0992192,484.107427 15.8908306,474.899038 9.61577523,463.165705 L9.24279517,462.461655 L9.24279517,462.461655 L8.87687472,461.756846 L8.87687472,461.756846 L8.51803348,461.050292 L8.51803348,461.050292 L8.16629104,460.341007 L8.16629104,460.341007 L7.82166702,459.628005 L7.82166702,459.628005 L7.484181,458.910298 L7.484181,458.910298 L7.15385261,458.1869 L7.15385261,458.1869 L6.83070143,457.456825 L6.83070143,457.456825 L6.51474707,456.719086 L6.51474707,456.719086 L6.20600914,455.972697 L6.20600914,455.972697 L5.90450723,455.216672 C5.854861,455.08981 5.80551709,454.962505 5.75647591,454.834737 L5.4658648,454.062407 L5.4658648,454.062407 L5.18253872,453.277975 C5.08931304,453.01437 4.99730481,452.748585 4.90651728,452.480453 L4.63782007,451.668855 L4.63782007,451.668855 L4.37646671,450.842195 C4.29057507,450.564022 4.20591068,450.283174 4.12247679,449.999487 L3.87586992,449.139743 L3.87586992,449.139743 L3.63666569,448.261978 C3.47966812,447.670575 3.32761871,447.0665 3.1805436,446.448437 L2.96366494,445.510689 L2.96366494,445.510689 L2.75426734,444.550973 C2.68571716,444.227297 2.6184171,443.899795 2.5523704,443.568303 L2.35799373,442.561692 C2.3262254,442.391874 2.29477122,442.221017 2.26363162,442.049101 L2.0805721,441.004731 C2.05069241,440.828496 2.0211281,440.651161 1.99187959,440.472705 L1.82018133,439.388354 C1.79219763,439.205333 1.76453054,439.02115 1.73718048,438.835784 L1.57688758,437.709234 C1.55080722,437.519056 1.52504471,437.327654 1.49960043,437.135009 L1.35075701,435.96404 L1.35075701,435.96404 L1.20957106,434.762226 C1.18667929,434.559299 1.16410739,434.355045 1.14185577,434.149444 L1.01219281,432.899512 L1.01219281,432.899512 L0.890236338,431.616268 L0.890236338,431.616268 L0.776005958,430.298725 C0.757612492,430.076222 0.739541763,429.852248 0.721794179,429.626784 L0.619189694,428.255945 C0.602736327,428.024435 0.586606922,427.791394 0.570801889,427.5568 L0.479867404,426.130444 L0.479867404,426.130444 L0.396737423,424.665844 L0.396737423,424.665844 L0.321431548,423.162013 L0.321431548,423.162013 L0.253969382,421.617966 L0.253969382,421.617966 L0.194370527,420.032714 L0.194370527,420.032714 L0.142654587,418.405273 L0.142654587,418.405273 L0.0988411632,416.734655 L0.0988411632,416.734655 L0.0629498592,415.019874 C0.0576292409,414.730343 0.0526395277,414.43893 0.0479811279,414.145615 L0.0240097582,412.36274 L0.0240097582,412.36274 L0.0080095147,410.533236 L0.0080095147,410.533236 L0,408.656116 L0,408.656116 L0,91.3424031 L0,91.3424031 L0.0080095147,89.4652836 L0.0080095147,89.4652836 L0.0240097582,87.6357796 L0.0240097582,87.6357796 L0.0479811279,85.8529048 L0.0479811279,85.8529048 L0.0799040211,84.1156726 L0.0799040211,84.1156726 L0.119758835,82.4230967 L0.119758835,82.4230967 L0.167525967,80.7741904 L0.167525967,80.7741904 L0.223185815,79.1679674 C0.233119094,78.9037657 0.243380419,78.6413014 0.253969382,78.3805538 L0.321431548,76.8365061 L0.321431548,76.8365061 L0.396737423,75.3326754 L0.396737423,75.3326754 L0.479867404,73.8680753 L0.479867404,73.8680753 L0.570801889,72.4417194 L0.570801889,72.4417194 L0.669521274,71.0526212 C0.686622158,70.8241549 0.704046596,70.5971998 0.721794179,70.3717355 L0.832154162,69.0366741 C0.851192694,68.8170906 0.870553556,68.5989567 0.890236338,68.3822519 L1.01219281,67.099008 L1.01219281,67.099008 L1.14185577,65.8490758 L1.14185577,65.8490758 L1.27920562,64.631469 C1.30273675,64.4311735 1.32658735,64.2321838 1.35075701,64.0344793 L1.49960043,62.8635109 C1.52504471,62.6708651 1.55080722,62.4794635 1.57688758,62.2892855 L1.73718048,61.1627359 C1.76453054,60.97737 1.79219763,60.7931866 1.82018133,60.6101651 L1.99187959,59.5258148 C2.0211281,59.3473588 2.05069241,59.1700236 2.0805721,58.9937887 L2.26363162,57.9494182 C2.29477122,57.7775022 2.3262254,57.6066453 2.35799373,57.4368271 L2.5523704,56.4302167 C2.6184171,56.0987248 2.68571716,55.771223 2.75426734,55.4475468 L2.96366494,54.4878307 L2.96366494,54.4878307 L3.1805436,53.550082 C3.32761871,52.9320196 3.47966812,52.3279444 3.63666569,51.7365412 L3.87586992,50.8587761 L3.87586992,50.8587761 L4.12247679,49.9990326 C4.16419373,49.857189 4.20621831,49.7160552 4.24855009,49.5756106 L4.50622419,48.7410498 C4.54978322,48.6032801 4.59364865,48.4661584 4.63782007,48.3296644 L4.90651728,47.5180667 C4.99730481,47.249935 5.08931304,46.9841491 5.18253872,46.7205448 L5.4658648,45.9361122 L5.4658648,45.9361122 L5.75647591,45.1637822 C5.80551709,45.0360144 5.854861,44.9087096 5.90450723,44.7818476 L6.20600914,44.0258222 L6.20600914,44.0258222 L6.51474707,43.2794334 L6.51474707,43.2794334 L6.83070143,42.5416948 L6.83070143,42.5416948 L7.15385261,41.8116198 L7.15385261,41.8116198 L7.484181,41.088222 L7.484181,41.088222 L7.82166702,40.370515 L7.82166702,40.370515 L8.16629104,39.6575122 L8.16629104,39.6575122 L8.51803348,38.9482272 L8.51803348,38.9482272 L8.87687472,38.2416736 L8.87687472,38.2416736 L9.24279517,37.5368648 L9.24279517,37.5368648 L9.61577523,36.8328144 L9.61577523,36.8328144 C15.8908306,25.0994811 25.0992192,15.8910924 36.8325526,9.61603711 L37.5366029,9.24305705 L37.5366029,9.24305705 L38.2414117,8.8771366 L38.2414117,8.8771366 L38.9479654,8.51829536 L38.9479654,8.51829536 L39.6572503,8.16655292 L39.6572503,8.16655292 L40.3702531,7.82192889 L40.3702531,7.82192889 L41.0879601,7.48444288 L41.0879601,7.48444288 L41.8113579,7.15411448 L41.8113579,7.15411448 L42.5414329,6.83096331 L42.5414329,6.83096331 L43.2791715,6.51500895 L43.2791715,6.51500895 L44.0255603,6.20627101 L44.0255603,6.20627101 L44.7815857,5.90476911 C44.9084478,5.85512288 45.0357525,5.80577897 45.1635204,5.75673779 L45.9358503,5.46612668 L45.9358503,5.46612668 L46.720283,5.1828006 C46.9838872,5.08957492 47.2496731,4.99756669 47.5178049,4.90677916 L48.3294025,4.63808195 L48.3294025,4.63808195 L49.1560623,4.37672859 C49.4342355,4.29083695 49.7150835,4.20617256 49.9987707,4.12273867 L50.8585143,3.8761318 L50.8585143,3.8761318 L51.7362794,3.63692757 C52.3276825,3.47992999 52.9317577,3.32788059 53.5498202,3.18080548 L54.4875688,2.96392682 L54.4875688,2.96392682 L55.4472849,2.75452922 C55.7709611,2.68597904 56.0984629,2.61867897 56.4299549,2.55263228 L57.4365652,2.35825561 C57.6063834,2.32648727 57.7772403,2.2950331 57.9491563,2.2638935 L58.9935269,2.08083398 C59.1697618,2.05095428 59.3470969,2.02138998 59.5255529,1.99214147 L60.6099032,1.82044321 C60.7929247,1.79245951 60.9771082,1.76479242 61.1624741,1.73744235 L62.2890236,1.57714946 C62.4792017,1.5510691 62.6706033,1.52530658 62.863249,1.49986231 L64.0342174,1.35101888 L64.0342174,1.35101888 L65.2360315,1.20983294 C65.4389591,1.18694116 65.6432131,1.16436926 65.8488139,1.14211765 L67.0987461,1.01245469 L67.0987461,1.01245469 L68.3819901,0.890498216 L68.3819901,0.890498216 L69.6995323,0.776267836 C69.9220357,0.75787437 70.1460093,0.739803641 70.3714736,0.722056057 L71.7423129,0.619451572 C71.9738224,0.602998205 72.2068638,0.5868688 72.4414576,0.571063767 L73.8678135,0.480129282 L73.8678135,0.480129282 L75.3324135,0.396999301 L75.3324135,0.396999301 L76.8362442,0.321693426 L76.8362442,0.321693426 L78.380292,0.254231259 L78.380292,0.254231259 L79.9655433,0.194632405 L79.9655433,0.194632405 L81.5929846,0.142916465 L81.5929846,0.142916465 L83.2636024,0.0991030411 L83.2636024,0.0991030411 L84.9783832,0.0632117372 C85.267915,0.0578911188 85.5593281,0.0529014056 85.8526429,0.0482430058 L87.6355177,0.0242716362 L87.6355177,0.0242716362 L89.4650217,0.00827139265 L89.4650217,0.00827139265 L91.3421412,0 L91.3421412,0 L369.136913,0 L369.136913,0 L371.096953,0.0110882116 L371.096953,0.0110882116 L372.360071,0.0258509002 L372.360071,0.0258509002 L374.191304,0.0590126488 L374.191304,0.0590126488 L375.370948,0.0884433964 L375.370948,0.0884433964 L376.518545,0.123714693 L376.518545,0.123714693 L377.634861,0.164811297 L377.634861,0.164811297 L378.720664,0.211717966 L378.720664,0.211717966 L380.293834,0.292938497 L380.293834,0.292938497 L381.802664,0.387145936 L381.802664,0.387145936 L382.774084,0.457140439 L382.774084,0.457140439 L383.718826,0.532868795 L383.718826,0.532868795 L385.087596,0.657178961 L385.087596,0.657178961 L385.968998,0.747175263 L385.968998,0.747175263 L386.826408,0.84285207 L386.826408,0.84285207 L387.66059,0.944194139 L387.66059,0.944194139 L388.472314,1.05118623 L388.472314,1.05118623 L389.262345,1.16381309 L389.262345,1.16381309 L390.031451,1.28205949 L390.031451,1.28205949 L390.780399,1.40591019 C390.903587,1.42701815 391.025966,1.44835898 391.147553,1.46993238 L391.867702,1.60216093 L391.867702,1.60216093 L392.56961,1.73995567 L392.56961,1.73995567 L393.254045,1.88330135 L393.254045,1.88330135 L393.921773,2.03218274 L393.921773,2.03218274 L394.573561,2.18658458 L394.573561,2.18658458 L395.210178,2.34649164 L395.210178,2.34649164 L395.832388,2.51188868 L395.832388,2.51188868 L396.440961,2.68276045 C396.541296,2.71169445 396.641094,2.74085594 396.740372,2.77024459 L397.620259,3.04086721 L397.620259,3.04086721 L398.192519,3.22807172 L398.192519,3.22807172 L398.754208,3.42068999 L398.754208,3.42068999 L399.306095,3.61870678 L399.306095,3.61870678 L399.848945,3.82210686 L399.848945,3.82210686 L400.383527,4.03087496 L400.383527,4.03087496 L400.910606,4.24499586 L400.910606,4.24499586 L401.688837,4.57618036 L401.688837,4.57618036 L402.200517,4.80361655 L402.200517,4.80361655 L402.959245,5.15470255 L402.959245,5.15470255 L403.709723,5.51766085 L403.709723,5.51766085 L404.206736,5.76620337 Z" id="path-1"></path>
        <path d="M24,0 L360,0 C373.254834,0 384,10.745166 384,24 C384,37.254834 373.254834,48 360,48 L24,48 C10.745166,48 0,37.254834 0,24 C0,10.745166 10.745166,0 24,0 Z" id="path-3"></path>
    </defs>
    <g id="icon_ok" stroke="none" stroke-width="1" fill="none" fill-rule="evenodd">
        <g id="Group" transform="translate(0.001002, 0.000740)">
            <mask id="mask-2" fill="white">
                <use xlink:href="#path-1"></use>
            </mask>
            <g id="Path"></g>
            <path d="M92.2988651,-0.000740230262 L221.465753,-0.000740230262 C242.862203,-0.000740230262 250.621073,2.22707444 258.443295,6.41044466 C266.265517,10.5938149 272.404443,16.7327407 276.587813,24.5549629 C280.771183,32.3771851 282.998998,40.1360548 282.998998,61.5325046 L282.998998,438.466015 C282.998998,459.862465 280.771183,467.621334 276.587813,475.443557 C272.404443,483.265779 266.265517,489.404705 258.443295,493.588075 C250.621073,497.771445 242.862203,499.99926 221.465753,499.99926 L92.2988651,499.99926 C60.2041905,499.99926 48.5658859,496.657538 36.8325526,490.382482 C25.0992192,484.107427 15.8908306,474.899038 9.61577523,463.165705 C3.34071989,451.432372 -0.00100210821,439.794067 -0.00100210821,407.699393 L-0.00100210821,92.299127 C-0.00100210821,60.2044523 3.34071989,48.5661478 9.61577523,36.8328144 C15.8908306,25.0994811 25.0992192,15.8910924 36.8325526,9.61603711 C48.5658859,3.34098177 60.2041905,-0.000740230262 92.2988651,-0.000740230262 Z" id="outer" fill="#5EC0FE" mask="url(#mask-2)"></path>
            <path d="M92.2988651,-0.000740230262 L368.465753,-0.000740230262 C389.862203,-0.000740230262 397.621073,2.22707444 405.443295,6.41044466 C413.265517,10.5938149 419.404443,16.7327407 423.587813,24.5549629 C427.771183,32.3771851 429.998998,40.1360548 429.998998,61.5325046 L429.998998,294.466015 C429.998998,315.862465 427.771183,323.621334 423.587813,331.443557 C419.404443,339.265779 413.265517,345.404705 405.443295,349.588075 C397.621073,353.771445 389.862203,355.99926 368.465753,355.99926 L92.2988651,355.99926 C60.2041905,355.99926 48.5658859,352.657538 36.8325526,346.382482 C25.0992192,340.107427 15.8908306,330.899038 9.61577523,319.165705 C3.34071989,307.432372 -0.00100210821,295.794067 -0.00100210821,263.699393 L-0.00100210821,92.299127 C-0.00100210821,60.2044523 3.34071989,48.5661478 9.61577523,36.8328144 C15.8908306,25.0994811 25.0992192,15.8910924 36.8325526,9.61603711 C48.5658859,3.34098177 60.2041905,-0.000740230262 92.2988651,-0.000740230262 Z" id="outer" fill="#5EC0FE" mask="url(#mask-2)"></path>
            <path d="M71.9989979,-0.000740230262 L71.9989979,355.99926 L282.837425,355.99926 C265.473284,333.120116 251.139952,316.749309 239.83743,306.886839 C206.11236,277.458675 167.722682,250.824713 160.432191,205.378233 C149.476729,137.085549 167.665665,68.6258913 214.998998,-0.000740230262 L71.9989979,-0.000740230262 Z" id="Path" fill="#2699E2" mask="url(#mask-2)"></path>
            <circle id="Oval" fill="#FFD400" mask="url(#mask-2)" cx="95.9989979" cy="23.9992598" r="72"></circle>
            <g mask="url(#mask-2)" fill="#FFD400" id="Oval">
                <g transform="translate(333.998998, -48.000740)">
                    <circle cx="72" cy="72" r="72"></circle>
                    <circle cx="72" cy="386" r="72"></circle>
                </g>
            </g>
            <g opacity="0.499008905" mask="url(#mask-2)" fill="#FFFFFF" id="Oval">
                <g transform="translate(333.998998, -48.000740)">
                    <circle cx="72" cy="72" r="72"></circle>
                    <circle cx="72" cy="386" r="72"></circle>
                </g>
            </g>
            <circle id="Oval" fill="#FFD400" mask="url(#mask-2)" cx="95.9989979" cy="337.99926" r="72"></circle>
            <path d="M71.9989979,-0.000740230262 L71.9989979,-0.000740230262 L71.9989979,-0.000740230262 L71.9989979,499.99926 C32.2344959,499.99926 -0.00100210821,467.763762 -0.00100210821,427.99926 L-0.00100210821,71.9992598 C-0.00100210821,32.2347578 32.2344959,-0.000740230262 71.9989979,-0.000740230262 Z" id="outer_left" fill="#197FC0" mask="url(#mask-2)"></path>
            <path d="M71.9989979,355.99926 L214.998998,355.99926 L214.998998,355.99926 L214.998998,499.99926 L71.9989979,499.99926 C32.2344959,499.99926 -0.00100210821,467.763762 -0.00100210821,427.99926 C-0.00100210821,388.234758 32.2344959,355.99926 71.9989979,355.99926 Z" id="bot_mid" fill="#5EC0FE" mask="url(#mask-2)"></path>
            <path d="M214.998998,355.99926 L405.998998,355.99926 C419.253832,355.99926 429.998998,366.744426 429.998998,379.99926 C429.998998,393.254094 419.253832,403.99926 405.998998,403.99926 L214.998998,403.99926 L214.998998,403.99926 L214.998998,355.99926 Z" id="bot_ttop" fill="#5EC0FE" mask="url(#mask-2)"></path>
            <path d="M214.998998,451.99926 L405.998998,451.99926 C419.253832,451.99926 429.998998,462.744426 429.998998,475.99926 C429.998998,489.254094 419.253832,499.99926 405.998998,499.99926 L214.998998,499.99926 L214.998998,499.99926 L214.998998,451.99926 Z" id="bot_bot" fill="#5EC0FE" mask="url(#mask-2)"></path>
            <rect id="bot_mid" fill="#FFD400" mask="url(#mask-2)" x="45.9989979" y="403.99926" width="384" height="48" rx="24"></rect>
            <g id="bot_mid" mask="url(#mask-2)">
                <g transform="translate(45.998998, 403.999260)">
                    <g stroke-width="1" fill="none">
                        <mask id="mask-4" fill="white">
                            <use xlink:href="#path-3"></use>
                        </mask>
                        <use id="Mask" fill="#FFD400" xlink:href="#path-3"></use>
                        <path d="M0,16 L184,16 C188.418278,16 192,19.581722 192,24 C192,28.418278 188.418278,32 184,32 L0,32 L0,16 Z" fill-opacity="0.5" fill="#C7A300" mask="url(#mask-4)"></path>
                    </g>
                    <path d="M224,16 L256,16 C260.418278,16 264,19.581722 264,24 C264,28.418278 260.418278,32 256,32 L224,32 C219.581722,32 216,28.418278 216,24 C216,19.581722 219.581722,16 224,16 Z" fill-opacity="0.5" fill="#C7A300"></path>
                </g>
            </g>
            <path d="M167.998998,355.99926 L405.998998,355.99926 C419.253832,355.99926 429.998998,366.744426 429.998998,379.99926 L429.998998,475.99926 C429.998998,489.254094 419.253832,499.99926 405.998998,499.99926 L167.998998,499.99926 C128.234496,499.99926 95.9989979,467.763762 95.9989979,427.99926 C95.9989979,388.234758 128.234496,355.99926 167.998998,355.99926 Z" id="bot_overlay" fill-opacity="0.5" fill="#FFFFFF" mask="url(#mask-2)"></path>
            <path d="M380.998998,139.99926 L426.471386,139.99926 C435.771937,139.99926 442.715554,141.670121 448.582221,144.807648 C454.448887,147.945176 459.053082,152.54937 462.190609,158.416037 C465.328137,164.282704 466.998998,171.22632 466.998998,180.526871 L466.998998,183.471648 C466.998998,192.772199 465.328137,199.715816 462.190609,205.582482 C459.053082,211.449149 454.448887,216.053343 448.582221,219.190871 C442.715554,222.328399 435.771937,223.99926 426.471386,223.99926 L380.998998,223.99926 C357.803038,223.99926 338.998998,205.195219 338.998998,181.99926 C338.998998,158.8033 357.803038,139.99926 380.998998,139.99926 Z" id="Rectangle" fill="#A1887F"></path>
            <circle id="Oval" fill="#FFD400" cx="384.998998" cy="180.99926" r="18"></circle>
        </g>
    </g>
</svg>