<svg width="28" height="28" viewBox="0 0 28 28" fill="none" xmlns="http://www.w3.org/2000/svg">
<path d="M9.19617 10.1255C9.19378 10.182 9.20297 10.2384 9.22318 10.2913C9.24339 10.3441 9.27419 10.3922 9.31369 10.4327C9.3532 10.4732 9.40056 10.5052 9.45288 10.5267C9.5052 10.5482 9.56137 10.5588 9.61792 10.5577H11.0617C11.3032 10.5577 11.4957 10.36 11.5272 10.1202C11.6847 8.97225 12.4722 8.13575 13.8757 8.13575C15.0762 8.13575 16.1752 8.736 16.1752 10.1797C16.1752 11.291 15.5207 11.802 14.4864 12.579C13.3087 13.4348 12.3759 14.434 12.4424 16.0563L12.4477 16.436C12.4495 16.5508 12.4964 16.6603 12.5783 16.7408C12.6601 16.8214 12.7703 16.8665 12.8852 16.8665H14.3044C14.4205 16.8665 14.5317 16.8204 14.6138 16.7384C14.6958 16.6563 14.7419 16.545 14.7419 16.429V16.2452C14.7419 14.9888 15.2197 14.623 16.5094 13.6447C17.5752 12.8345 18.6864 11.935 18.6864 10.0468C18.6864 7.4025 16.4534 6.125 14.0087 6.125C11.7914 6.125 9.36242 7.1575 9.19617 10.1255ZM11.9209 20.2107C11.9209 21.1435 12.6647 21.833 13.6884 21.833C14.7542 21.833 15.4874 21.1435 15.4874 20.2107C15.4874 19.2448 14.7524 18.5658 13.6867 18.5658C12.6647 18.5658 11.9209 19.2448 11.9209 20.2107Z" fill="#F29947"/>
</svg>
