<svg width="20" height="20" viewBox="0 0 20 20" fill="none" xmlns="http://www.w3.org/2000/svg">
<path d="M4.16085 10.8206C3.97982 10.8204 3.80367 10.8791 3.65901 10.988C3.51436 11.0968 3.40907 11.2498 3.35908 11.4238C3.30909 11.5977 3.31711 11.7833 3.38193 11.9523C3.44675 12.1213 3.56484 12.2646 3.71835 12.3606L5.95835 14.6006C6.03577 14.6779 6.12768 14.7393 6.22882 14.7811C6.32996 14.823 6.43835 14.8445 6.54781 14.8445C6.65726 14.8444 6.76564 14.8228 6.86675 14.7809C6.96786 14.739 7.05973 14.6776 7.1371 14.6001C7.21447 14.5227 7.27583 14.4308 7.31768 14.3297C7.35953 14.2285 7.38105 14.1201 7.38101 14.0107C7.38098 13.9012 7.35938 13.7928 7.31746 13.6917C7.27553 13.5906 7.2141 13.4988 7.13668 13.4214L6.20251 12.4881H12.4942C12.7152 12.4881 12.9272 12.4003 13.0834 12.244C13.2397 12.0877 13.3275 11.8757 13.3275 11.6547C13.3275 11.4337 13.2397 11.2217 13.0834 11.0655C12.9272 10.9092 12.7152 10.8214 12.4942 10.8214H4.16085V10.8206Z" fill="#2699E2"/>
<path d="M15.8391 9.17992C16.0202 9.18011 16.1963 9.12134 16.341 9.01251C16.4856 8.90368 16.5909 8.75071 16.6409 8.57673C16.6909 8.40275 16.6829 8.21722 16.6181 8.0482C16.5532 7.87918 16.4351 7.73586 16.2816 7.63992L14.0416 5.39992C13.8853 5.24367 13.6732 5.15593 13.4522 5.15601C13.2311 5.15608 13.0191 5.24397 12.8629 5.40034C12.7066 5.55671 12.6189 5.76874 12.619 5.9898C12.619 6.21086 12.7069 6.42283 12.8633 6.57909L13.7975 7.51242H7.5058C7.28479 7.51242 7.07283 7.60022 6.91655 7.7565C6.76027 7.91278 6.67247 8.12474 6.67247 8.34576C6.67247 8.56677 6.76027 8.77873 6.91655 8.93501C7.07283 9.09129 7.28479 9.17909 7.5058 9.17909H15.8391V9.17992Z" fill="#2699E2"/>
</svg>
