<svg width="24" height="24" viewBox="0 0 24 24" fill="none" xmlns="http://www.w3.org/2000/svg">
<path d="M21.7101 20.2914L18.0001 16.6114C19.4402 14.8158 20.1377 12.5367 19.949 10.2427C19.7603 7.94867 18.6998 5.81415 16.9857 4.27801C15.2715 2.74188 13.034 1.92088 10.7331 1.98384C8.43219 2.0468 6.24287 2.98893 4.61529 4.61651C2.98771 6.24409 2.04558 8.43341 1.98262 10.7343C1.91966 13.0352 2.74065 15.2727 4.27679 16.9869C5.81293 18.701 7.94745 19.7615 10.2414 19.9502C12.5354 20.1389 14.8146 19.4415 16.6101 18.0014L20.2901 21.6814C20.3831 21.7751 20.4937 21.8495 20.6156 21.9003C20.7374 21.951 20.8681 21.9772 21.0001 21.9772C21.1322 21.9772 21.2629 21.951 21.3847 21.9003C21.5066 21.8495 21.6172 21.7751 21.7101 21.6814C21.8904 21.4949 21.9911 21.2457 21.9911 20.9864C21.9911 20.727 21.8904 20.4778 21.7101 20.2914ZM11.0001 18.0014C9.61568 18.0014 8.2623 17.5908 7.11116 16.8217C5.96001 16.0525 5.06281 14.9592 4.53299 13.6802C4.00318 12.4011 3.86455 10.9936 4.13465 9.63574C4.40475 8.27787 5.07143 7.03059 6.0504 6.05162C7.02937 5.07265 8.27665 4.40597 9.63452 4.13587C10.9924 3.86578 12.3999 4.0044 13.6789 4.53421C14.958 5.06403 16.0513 5.96123 16.8204 7.11238C17.5896 8.26352 18.0001 9.6169 18.0001 11.0014C18.0001 12.8579 17.2627 14.6384 15.9499 15.9511C14.6371 17.2639 12.8567 18.0014 11.0001 18.0014Z" fill="#142D3D"/>
</svg>
