<svg width="24" height="24" viewBox="0 0 24 24" fill="none" xmlns="http://www.w3.org/2000/svg">
<path d="M19.14 12.9384C19.18 12.6384 19.2 12.3284 19.2 11.9984C19.2 11.6784 19.18 11.3584 19.13 11.0584L21.16 9.47844C21.2474 9.40634 21.3072 9.30614 21.3291 9.19491C21.351 9.08368 21.3336 8.9683 21.28 8.86844L19.36 5.54844C19.3034 5.448 19.2132 5.37082 19.1052 5.33055C18.9972 5.29028 18.8785 5.28953 18.77 5.32844L16.38 6.28844C15.88 5.90844 15.35 5.58844 14.76 5.34844L14.4 2.80844C14.3823 2.69397 14.3241 2.58965 14.236 2.51442C14.1479 2.43919 14.0358 2.39804 13.92 2.39844H10.08C9.83996 2.39844 9.64996 2.56844 9.60996 2.80844L9.24996 5.34844C8.65996 5.58844 8.11996 5.91844 7.62996 6.28844L5.23996 5.32844C5.01996 5.24844 4.76996 5.32844 4.64996 5.54844L2.73996 8.86844C2.61996 9.07844 2.65996 9.33844 2.85996 9.47844L4.88996 11.0584C4.83996 11.3584 4.79996 11.6884 4.79996 11.9984C4.79996 12.3084 4.81996 12.6384 4.86996 12.9384L2.83996 14.5184C2.75249 14.5905 2.69272 14.6907 2.67084 14.802C2.64896 14.9132 2.66632 15.0286 2.71996 15.1284L4.63996 18.4484C4.75996 18.6684 5.00996 18.7384 5.22996 18.6684L7.61996 17.7084C8.11996 18.0884 8.64996 18.4084 9.23996 18.6484L9.59996 21.1884C9.64996 21.4284 9.83996 21.5984 10.08 21.5984H13.92C14.16 21.5984 14.36 21.4284 14.39 21.1884L14.75 18.6484C15.34 18.4084 15.88 18.0884 16.37 17.7084L18.76 18.6684C18.98 18.7484 19.23 18.6684 19.35 18.4484L21.27 15.1284C21.39 14.9084 21.34 14.6584 21.15 14.5184L19.14 12.9384V12.9384ZM12 15.5984C10.02 15.5984 8.39996 13.9784 8.39996 11.9984C8.39996 10.0184 10.02 8.39844 12 8.39844C13.98 8.39844 15.6 10.0184 15.6 11.9984C15.6 13.9784 13.98 15.5984 12 15.5984Z" fill="#2699E2"/>
</svg>
